<svg width="77" height="102" viewBox="0 0 77 102" fill="none" xmlns="http://www.w3.org/2000/svg">
<g filter="url(#filter0_d_2_4)">
<path d="M37.76 93.92C31.7013 93.92 26.0267 92.5547 20.736 89.824C18.3467 88.6293 16.3413 87.2213 14.72 85.6C13.5253 87.5627 12.032 89.312 10.24 90.848C8.704 91.9573 7.85067 92.5547 7.68 92.64H4.48V68.32H9.6C10.88 72.5013 12.672 76.256 14.976 79.584C20.1813 87.008 26.9227 90.72 35.2 90.72C40.064 90.72 43.9467 89.2693 46.848 86.368C49.7493 83.4667 51.2 79.584 51.2 74.72C51.2 71.904 50.3467 69.3867 48.64 67.168C47.0187 64.9493 44.9707 62.9867 42.496 61.28C40.0213 59.5733 36.5653 57.44 32.128 54.88C26.496 51.7227 21.9307 48.864 18.432 46.304C14.9333 43.744 11.9467 40.544 9.472 36.704C6.99733 32.7787 5.76 28.1707 5.76 22.88C5.76 18.6987 6.912 14.944 9.216 11.616C11.6053 8.20266 15.1467 5.51466 19.84 3.55199C24.5333 1.504 30.2933 0.479996 37.12 0.479996C42.0693 0.479996 47.0187 1.888 51.968 4.70399C53.8453 5.728 55.7227 7.09333 57.6 8.8C59.0507 6.58133 60.544 4.83199 62.08 3.55199C63.616 2.44266 64.4693 1.84533 64.64 1.75999H67.84V26.08H62.72C61.6107 21.984 59.9467 18.272 57.728 14.944C55.68 11.7013 53.12 9.01333 50.048 6.88C47.0613 4.74666 43.6053 3.67999 39.68 3.67999C36.352 3.67999 33.4933 5.00266 31.104 7.64799C28.7147 10.2933 27.52 13.664 27.52 17.76C27.52 20.9173 28.416 23.776 30.208 26.336C32.0853 28.8107 34.3467 30.9867 36.992 32.864C39.7227 34.7413 43.392 37.0027 48 39.648C53.376 42.72 57.728 45.4507 61.056 47.84C64.384 50.2293 67.2 53.216 69.504 56.8C71.808 60.2987 72.96 64.352 72.96 68.96C72.96 73.568 71.6373 77.792 68.992 81.632C66.3467 85.3867 62.3787 88.3733 57.088 90.592C51.7973 92.8107 45.3547 93.92 37.76 93.92Z" fill="white"/>
<path d="M20.736 89.824L21.1947 88.9353L21.1832 88.9296L20.736 89.824ZM14.72 85.6L15.4271 84.8929L14.5274 83.9932L13.8658 85.0801L14.72 85.6ZM10.24 90.848L10.8255 91.6587L10.8592 91.6343L10.8908 91.6073L10.24 90.848ZM7.68 92.64V93.64H7.91607L8.12721 93.5344L7.68 92.64ZM4.48 92.64H3.48V93.64H4.48V92.64ZM4.48 68.32V67.32H3.48V68.32H4.48ZM9.6 68.32L10.5562 68.0273L10.3397 67.32H9.6V68.32ZM14.976 79.584L14.1538 80.1532L14.1572 80.1581L14.976 79.584ZM46.848 86.368L47.5551 87.0751L47.5551 87.0751L46.848 86.368ZM48.64 67.168L47.8326 67.758L47.8399 67.768L47.8474 67.7777L48.64 67.168ZM42.496 61.28L41.9283 62.1032L41.9283 62.1032L42.496 61.28ZM32.128 54.88L32.6278 54.0137L32.617 54.0077L32.128 54.88ZM18.432 46.304L19.0225 45.497L19.0225 45.497L18.432 46.304ZM9.472 36.704L8.62603 37.2373L8.63143 37.2457L9.472 36.704ZM9.216 11.616L8.39676 11.0425L8.39381 11.0468L9.216 11.616ZM19.84 3.55199L20.2258 4.47457L20.2329 4.47161L20.2399 4.46853L19.84 3.55199ZM51.968 4.70399L51.4735 5.57316L51.4813 5.57759L51.4891 5.58189L51.968 4.70399ZM57.6 8.8L56.9273 9.53994L57.7951 10.3289L58.437 9.34724L57.6 8.8ZM62.08 3.55199L61.4945 2.74132L61.4664 2.7616L61.4398 2.78377L62.08 3.55199ZM64.64 1.75999V0.759995H64.4039L64.1928 0.865567L64.64 1.75999ZM67.84 1.75999H68.84V0.759995H67.84V1.75999ZM67.84 26.08V27.08H68.84V26.08H67.84ZM62.72 26.08L61.7548 26.3414L61.9548 27.08H62.72V26.08ZM57.728 14.944L56.8825 15.478L56.8891 15.4884L56.896 15.4987L57.728 14.944ZM50.048 6.88L49.4667 7.6938L49.4776 7.70137L50.048 6.88ZM31.104 7.64799L31.8461 8.31828L31.104 7.64799ZM30.208 26.336L29.3888 26.9095L29.3997 26.9251L29.4113 26.9404L30.208 26.336ZM36.992 32.864L36.4133 33.6795L36.4193 33.6838L36.4255 33.688L36.992 32.864ZM48 39.648L47.5021 40.5153L47.5039 40.5162L48 39.648ZM61.056 47.84L61.6392 47.0277L61.6392 47.0277L61.056 47.84ZM69.504 56.8L68.6628 57.3408L68.6688 57.35L69.504 56.8ZM68.992 81.632L69.8095 82.208L69.8155 82.1993L68.992 81.632ZM57.088 90.592L56.7013 89.6698L56.7013 89.6698L57.088 90.592ZM37.76 92.92C31.858 92.92 26.3409 91.5915 21.1946 88.9354L20.2774 90.7126C25.7124 93.5178 31.5447 94.92 37.76 94.92V92.92ZM21.1832 88.9296C18.8745 87.7752 16.9611 86.4269 15.4271 84.8929L14.0129 86.3071C15.7216 88.0158 17.8188 89.4835 20.2888 90.7184L21.1832 88.9296ZM13.8658 85.0801C12.7274 86.9503 11.3034 88.6194 9.58921 90.0887L10.8908 91.6073C12.7606 90.0046 14.3233 88.175 15.5742 86.1199L13.8658 85.0801ZM9.65451 90.0373C8.88784 90.591 8.29517 91.0143 7.87454 91.3088C7.66381 91.4563 7.50017 91.5687 7.3813 91.6479C7.24179 91.741 7.20952 91.7572 7.23279 91.7456L8.12721 93.5344C8.23582 93.4801 8.37421 93.3897 8.4907 93.3121C8.62783 93.2206 8.80553 93.0984 9.02146 92.9472C9.45416 92.6443 10.0562 92.2143 10.8255 91.6587L9.65451 90.0373ZM7.68 91.64H4.48V93.64H7.68V91.64ZM5.48 92.64V68.32H3.48V92.64H5.48ZM4.48 69.32H9.6V67.32H4.48V69.32ZM8.6438 68.6127C9.95154 72.8847 11.7866 76.734 14.1538 80.1532L15.7982 79.0148C13.5574 75.778 11.8085 72.118 10.5562 68.0273L8.6438 68.6127ZM14.1572 80.1581C19.5288 87.8193 26.5619 91.72 35.2 91.72V89.72C27.2835 89.72 20.8338 86.1967 15.7948 79.0099L14.1572 80.1581ZM35.2 91.72C40.2764 91.72 44.4319 90.1983 47.5551 87.0751L46.1409 85.6609C43.4614 88.3404 39.8516 89.72 35.2 89.72V91.72ZM47.5551 87.0751C50.6783 83.9519 52.2 79.7964 52.2 74.72H50.2C50.2 79.3716 48.8204 82.9814 46.1409 85.6609L47.5551 87.0751ZM52.2 74.72C52.2 71.6849 51.2746 68.9529 49.4326 66.5583L47.8474 67.7777C49.4187 69.8204 50.2 72.1231 50.2 74.72H52.2ZM49.4474 66.578C47.7539 64.2606 45.6222 62.2212 43.0637 60.4568L41.9283 62.1032C44.3192 63.7521 46.2834 65.6381 47.8326 67.758L49.4474 66.578ZM43.0637 60.4568C40.557 58.728 37.0746 56.5793 32.6277 54.0138L31.6283 55.7462C36.0561 58.3007 39.4857 60.4187 41.9283 62.1032L43.0637 60.4568ZM32.617 54.0077C27.0049 50.8615 22.4771 48.0247 19.0225 45.497L17.8415 47.111C21.3842 49.7033 25.9871 52.5838 31.639 55.7523L32.617 54.0077ZM19.0225 45.497C15.628 43.0132 12.7245 39.9049 10.3126 36.1623L8.63143 37.2457C11.1689 41.1831 14.2387 44.4748 17.8415 47.111L19.0225 45.497ZM10.3179 36.1707C7.95746 32.4265 6.76 28.009 6.76 22.88H4.76C4.76 28.3323 6.03721 33.1308 8.62607 37.2373L10.3179 36.1707ZM6.76 22.88C6.76 18.8949 7.85397 15.3402 10.0382 12.1852L8.39381 11.0468C5.97003 14.5478 4.76 18.5024 4.76 22.88H6.76ZM10.0352 12.1895C12.2942 8.9623 15.6683 6.38042 20.2258 4.47457L19.4542 2.62941C14.625 4.6489 10.9164 7.44302 8.39677 11.0425L10.0352 12.1895ZM20.2399 4.46853C24.7726 2.49065 30.3875 1.48 37.12 1.48V-0.520004C30.1992 -0.520004 24.2941 0.517342 19.4401 2.63545L20.2399 4.46853ZM37.12 1.48C41.8713 1.48 46.6519 2.82984 51.4735 5.57316L52.4625 3.83483C47.3855 0.946153 42.2674 -0.520004 37.12 -0.520004V1.48ZM51.4891 5.58189C53.2851 6.56149 55.0983 7.87718 56.9273 9.53994L58.2727 8.06006C56.347 6.30948 54.4056 4.8945 52.4469 3.8261L51.4891 5.58189ZM58.437 9.34724C59.8499 7.18629 61.2806 5.51991 62.7202 4.32022L61.4398 2.78377C59.8074 4.14408 58.2514 5.97637 56.763 8.25275L58.437 9.34724ZM62.6655 4.36267C63.4322 3.80897 64.0248 3.38567 64.4455 3.09123C64.6562 2.94371 64.8198 2.83129 64.9387 2.75204C65.0782 2.65904 65.1105 2.64279 65.0872 2.65442L64.1928 0.865567C64.0842 0.919868 63.9458 1.01028 63.8293 1.08794C63.6922 1.17936 63.5145 1.30161 63.2985 1.45276C62.8658 1.75565 62.2638 2.18568 61.4945 2.74132L62.6655 4.36267ZM64.64 2.75999H67.84V0.759995H64.64V2.75999ZM66.84 1.75999V26.08H68.84V1.75999H66.84ZM67.84 25.08H62.72V27.08H67.84V25.08ZM63.6852 25.8186C62.5494 21.6247 60.8422 17.8126 58.5601 14.3893L56.896 15.4987C59.0511 18.7314 60.672 22.3433 61.7548 26.3414L63.6852 25.8186ZM58.5735 14.41C56.4558 11.057 53.8032 8.27033 50.6184 6.05863L49.4776 7.70137C52.4368 9.75633 54.9042 12.3456 56.8825 15.478L58.5735 14.41ZM50.6292 6.06626C47.4609 3.80318 43.7984 2.67999 39.68 2.67999V4.67999C43.4122 4.67999 46.6617 5.69015 49.4668 7.69373L50.6292 6.06626ZM39.68 2.67999C36.0473 2.67999 32.9257 4.13926 30.3619 6.97771L31.8461 8.31828C34.061 5.86606 36.6567 4.67999 39.68 4.67999V2.67999ZM30.3619 6.97771C27.7819 9.83413 26.52 13.4558 26.52 17.76H28.52C28.52 13.8722 29.6474 10.7525 31.8461 8.31828L30.3619 6.97771ZM26.52 17.76C26.52 21.1202 27.4778 24.1795 29.3888 26.9095L31.0272 25.7625C29.3542 23.3725 28.52 20.7144 28.52 17.76H26.52ZM29.4113 26.9404C31.3528 29.4996 33.6887 31.7459 36.4133 33.6795L37.5707 32.0485C35.0047 30.2274 32.8179 28.1217 31.0047 25.7316L29.4113 26.9404ZM36.4255 33.688C39.1876 35.587 42.8828 37.8634 47.5021 40.5153L48.4979 38.7807C43.9012 36.1419 40.2578 33.8957 37.5585 32.04L36.4255 33.688ZM47.5039 40.5162C52.8634 43.5788 57.1831 46.2905 60.4728 48.6523L61.6392 47.0277C58.2729 44.6108 53.8886 41.8612 48.4961 38.7798L47.5039 40.5162ZM60.4728 48.6523C63.6944 50.9653 66.4242 53.8584 68.6628 57.3408L70.3452 56.2592C67.9758 52.5736 65.0736 49.4934 61.6392 47.0277L60.4728 48.6523ZM68.6688 57.35C70.8546 60.6692 71.96 64.5272 71.96 68.96H73.96C73.96 64.1768 72.7614 59.9281 70.3392 56.25L68.6688 57.35ZM71.96 68.96C71.96 73.3628 70.7004 77.3894 68.1685 81.0647L69.8155 82.1993C72.5743 78.1946 73.96 73.7732 73.96 68.96H71.96ZM68.1745 81.056C65.6614 84.623 61.8617 87.5058 56.7013 89.6698L57.4747 91.5142C62.8957 89.2409 67.0319 86.1503 69.8095 82.208L68.1745 81.056ZM56.7013 89.6698C51.5658 91.8234 45.2626 92.92 37.76 92.92V94.92C45.4467 94.92 52.0289 93.7979 57.4747 91.5142L56.7013 89.6698Z" fill="#F1CC09"/>
</g>
<defs>
<filter id="filter0_d_2_4" x="0.480003" y="0.479996" width="76.48" height="101.44" filterUnits="userSpaceOnUse" color-interpolation-filters="sRGB">
<feFlood flood-opacity="0" result="BackgroundImageFix"/>
<feColorMatrix in="SourceAlpha" type="matrix" values="0 0 0 0 0 0 0 0 0 0 0 0 0 0 0 0 0 0 127 0" result="hardAlpha"/>
<feOffset dy="4"/>
<feGaussianBlur stdDeviation="2"/>
<feComposite in2="hardAlpha" operator="out"/>
<feColorMatrix type="matrix" values="0 0 0 0 0 0 0 0 0 0 0 0 0 0 0 0 0 0 0.25 0"/>
<feBlend mode="normal" in2="BackgroundImageFix" result="effect1_dropShadow_2_4"/>
<feBlend mode="normal" in="SourceGraphic" in2="effect1_dropShadow_2_4" result="shape"/>
</filter>
</defs>
</svg>
